<svg xmlns="http://www.w3.org/2000/svg" viewBox="0 0 344 72" width="640" height="134"><path d="M 4 56 L 28 14" transform="translate(0.0 0)" fill="none" stroke="#FF6B35" stroke-width="7.2" stroke-linecap="round" stroke-linejoin="round"/><path d="M 52 56 L 28 14" transform="translate(0.0 0)" fill="none" stroke="#FF6B35" stroke-width="7.2" stroke-linecap="round" stroke-linejoin="round"/><path d="M 18 38 L 38 38" transform="translate(0.0 0)" fill="none" stroke="#FF6B35" stroke-width="7.2" stroke-linecap="round" stroke-linejoin="round"/><path d="M 4 14 L 4 56" transform="translate(56.0 0)" fill="none" stroke="#2C1810" stroke-width="7.2" stroke-linecap="round" stroke-linejoin="round"/><path d="M 4 36 L 30 14" transform="translate(56.0 0)" fill="none" stroke="#2C1810" stroke-width="7.2" stroke-linecap="round" stroke-linejoin="round"/><path d="M 4 36 L 30 56" transform="translate(56.0 0)" fill="none" stroke="#2C1810" stroke-width="7.2" stroke-linecap="round" stroke-linejoin="round"/><path d="M 30 20 Q 18 20 16 30 Q 14 40 23 40 Q 31 40 30 47 Q 29 54 20 54" transform="translate(94.0 0)" fill="none" stroke="#2C1810" stroke-width="7.2" stroke-linecap="round" stroke-linejoin="round"/><path d="M 4 56 L 28 14" transform="translate(128.0 0)" fill="none" stroke="#2C1810" stroke-width="7.2" stroke-linecap="round" stroke-linejoin="round"/><path d="M 52 56 L 28 14" transform="translate(128.0 0)" fill="none" stroke="#2C1810" stroke-width="7.2" stroke-linecap="round" stroke-linejoin="round"/><path d="M 18 38 L 38 38" transform="translate(128.0 0)" fill="none" stroke="#2C1810" stroke-width="7.2" stroke-linecap="round" stroke-linejoin="round"/><path d="M 4 14 L 4 56" transform="translate(184.0 0)" fill="none" stroke="#2C1810" stroke-width="7.2" stroke-linecap="round" stroke-linejoin="round"/><path d="M 4 56 L 28 56" transform="translate(184.0 0)" fill="none" stroke="#2C1810" stroke-width="7.2" stroke-linecap="round" stroke-linejoin="round"/><path d="M 18 14 C 29 14 34 21 34 35 C 34 49 29 56 18 56 C 7 56 2 49 2 35 C 2 21 7 14 18 14" transform="translate(214.0 0)" fill="none" stroke="#2C1810" stroke-width="7.2" stroke-linecap="round" stroke-linejoin="round"/><path d="M 4 14 L 4 56" transform="translate(250.0 0)" fill="none" stroke="#2C1810" stroke-width="7.2" stroke-linecap="round" stroke-linejoin="round"/><path d="M 4 36 L 30 14" transform="translate(250.0 0)" fill="none" stroke="#2C1810" stroke-width="7.2" stroke-linecap="round" stroke-linejoin="round"/><path d="M 4 36 L 30 56" transform="translate(250.0 0)" fill="none" stroke="#2C1810" stroke-width="7.2" stroke-linecap="round" stroke-linejoin="round"/><path d="M 4 56 L 28 14" transform="translate(288.0 0)" fill="none" stroke="#2C1810" stroke-width="7.2" stroke-linecap="round" stroke-linejoin="round"/><path d="M 52 56 L 28 14" transform="translate(288.0 0)" fill="none" stroke="#2C1810" stroke-width="7.2" stroke-linecap="round" stroke-linejoin="round"/><path d="M 18 38 L 38 38" transform="translate(288.0 0)" fill="none" stroke="#2C1810" stroke-width="7.2" stroke-linecap="round" stroke-linejoin="round"/><circle cx="28.0" cy="66" r="4.6" fill="#FF6B35"/></svg>